<svg xmlns="http://www.w3.org/2000/svg" viewBox="0 0 64 64">
  <rect width="64" height="64" rx="12" fill="#050505"/>
  <circle cx="32" cy="34" r="22" fill="#F7FF19"/>
  <ellipse cx="32" cy="6" rx="3" ry="5" fill="#F7FF19" transform="rotate(-8 32 6)"/>
  <ellipse cx="56" cy="14" rx="3" ry="5" fill="#F7FF19" transform="rotate(50 56 14)"/>
  <ellipse cx="60" cy="40" rx="3" ry="5" fill="#F7FF19" transform="rotate(80 60 40)"/>
  <ellipse cx="6" cy="36" rx="3" ry="5" fill="#F7FF19" transform="rotate(-100 6 36)"/>
  <circle cx="29" cy="26" r="4" fill="#1A1A1A"/>
  <path d="M29 30 L25 40 L32 43 M29 30 L36 34 L41 31 M25 40 L22 50 M32 43 L34 50" stroke="#1A1A1A" stroke-width="2.5" stroke-linecap="round" stroke-linejoin="round"/>
  <rect x="27" y="54" width="10" height="4" rx="2" fill="#1A1A1A" opacity="0.5"/>
</svg>
